<svg xmlns="http://www.w3.org/2000/svg" viewBox="0 0 358.46 338.2"><defs><style>.cls-1{fill:#5d1d57;}.cls-2{fill:#cea46d;}.cls-3{fill:#ffca05;}.cls-4{fill:#f05a22;}.cls-5{fill:#00a9e2;}.cls-6{fill:#a5cd39;}.cls-7{fill:#b9905d;}</style></defs><g id="Layer_2" data-name="Layer 2"><g id="Header"><polygon class="cls-1" points="358.46 182.98 268.84 338.2 89.61 338.2 0 182.98 44.81 105.37 52.87 110.03 10.75 182.98 94.99 328.89 263.47 328.89 347.71 182.98 263.47 37.07 168.82 37.07 168.82 27.76 268.84 27.76 358.46 182.98"/><polygon class="cls-2" points="167.79 15.51 80.37 15.52 32.15 99.03 18.72 91.28 71.42 0 167.79 0 167.79 15.51"/><path class="cls-1" d="M77.29,166.87v29.54c0,2.21.81,3.12,2.59,3.12a5.36,5.36,0,0,0,1.87-.38V203a9.39,9.39,0,0,1-3.36.62c-3.84,0-5.8-2.25-5.8-6V166.87Z"/><path class="cls-1" d="M105.77,201.11c-1.87,1.44-4.56,2.54-8.73,2.54-7.77,0-11.89-4.07-11.89-13.67,0-9.25,5.18-13.57,11.56-13.57s9.88,4.12,9.88,10.46a42.57,42.57,0,0,1-.24,4.6H89.85c.29,5.8,2.73,8.25,7.77,8.25a9.37,9.37,0,0,0,6-2.16ZM89.94,187.92h12a12.89,12.89,0,0,0,0-1.29c0-4.08-1.78-6.33-5.61-6.33C93.06,180.3,90.18,182.5,89.94,187.92Z"/><path class="cls-1" d="M130.66,184.71v11.51c0,2.11.67,3.4,2.35,3.4h.72V203a4.29,4.29,0,0,1-2,.48,4.74,4.74,0,0,1-4.79-3.12h-.2a9,9,0,0,1-7.53,3.36c-4.94,0-7.67-3.45-7.67-7.05,0-5.95,5.66-8.78,14.68-8.53v-2.65c0-3.88-1.92-5-5-5a6,6,0,0,0-5.56,3.11L112.19,181a10.59,10.59,0,0,1,9.07-4.51C127.2,176.46,130.66,178.91,130.66,184.71Zm-4.46,6.95c-5.81-.29-10,1.15-10,4.6,0,2.07,1.49,3.75,4.17,3.75a7,7,0,0,0,5.81-3.12Z"/><path class="cls-1" d="M154.2,166.87h4.7v36.4h-3.6l-.91-2.55h-.19a8.33,8.33,0,0,1-6.76,3c-5.86,0-9.74-3.84-9.74-12.47,0-10,5.37-14.43,12.23-14.43a19.16,19.16,0,0,1,4.27.47Zm.05,29.3V181.6a10.59,10.59,0,0,0-3.84-.73c-5,0-7.87,2.69-7.87,9.93,0,6.71,2.84,9,6.1,9A5.89,5.89,0,0,0,154.25,196.17Z"/><path class="cls-3" d="M169.59,166.25a3.14,3.14,0,1,1-3.12,3.21A3.08,3.08,0,0,1,169.59,166.25Zm-2.21,10.64h4.75v26.38h-4.75Z"/><path class="cls-1" d="M201,203.27H196.3V186.1c0-3.6-1.78-5.66-5.09-5.66a6.38,6.38,0,0,0-6,4.27v18.56h-4.75V176.89h3.65l1,2.69h.2a9.85,9.85,0,0,1,7.38-3.27c5.23,0,8.35,2.89,8.44,8.74Z"/><path class="cls-1" d="M228.09,203.08c0,7-4.51,10.46-11.22,10.46-5.43,0-8.06-1.78-9.26-3l2.73-3.69a8.82,8.82,0,0,0,6.86,2.69c4.41,0,6.23-2,6.23-6.48v-2.11h-.19a9.37,9.37,0,0,1-6,1.91c-5.47,0-10.17-3.16-10.17-12.31,0-8.11,4.18-13.92,12.86-13.92a19.38,19.38,0,0,1,8.2,1.44Zm-8.59-22.49c-4.65,0-7.67,3.11-7.67,9.53,0,6.92,3,8.74,6.52,8.74a6.44,6.44,0,0,0,5-2.26V181.26A10.12,10.12,0,0,0,219.5,180.59Z"/><path class="cls-1" d="M252.35,166.87v30.84c0,2.4.71,3.45,2.83,3.45a5.21,5.21,0,0,0,2.49-.62V203a8.81,8.81,0,0,1-3.21.58c-3.41,0-4.9-2-4.9-5.13V166.87Z"/><path class="cls-1" d="M279,184.71V196.8c0,2.53.77,4.36,2.73,4.36h.63v2.16a3,3,0,0,1-.77.09,4.6,4.6,0,0,1-4.7-3.21h-.19a9.73,9.73,0,0,1-8,3.59c-4.75,0-7.44-3.34-7.44-6.75,0-5.67,5.71-8.49,15.11-8.4v-3c0-4.6-2.16-6-5.95-6a7.1,7.1,0,0,0-6.28,3.21l-2.06-1.72a9.85,9.85,0,0,1,8.49-4.08C275.79,177.08,279,179.52,279,184.71ZM276.37,191c-6.67-.19-12.28,1.44-12.28,5.76,0,2.53,1.82,4.6,5.13,4.6a8.69,8.69,0,0,0,7.15-4Z"/><path class="cls-1" d="M302.21,179.92l-5.9,23.35h-4.12l-6.91-25.85h2.93l3.89,14.92c.71,2.78,1.43,5.6,2.1,8.38h.2c.57-2.39,1.1-4.75,1.72-7.14l4.08-16.16h4.27l4,16.21c.57,2.3,1.15,4.56,1.72,7.09h.19c.73-2.82,1.44-5.7,2.16-8.38l3.89-14.92h2.83l-7,25.85h-4.12l-5.8-23.35Z"/><path class="cls-1" d="M101.19,124.82h2.88v33.62h-2.88Z"/><path class="cls-1" d="M132.27,158.44h-2.78V141.31c0-4.26-2.16-6.61-6.1-6.61a7.66,7.66,0,0,0-7.19,5v18.71h-2.78V132.59h2.06l.62,2.83h.2a9.67,9.67,0,0,1,7.48-3.32c5.18,0,8.34,2.83,8.49,8.54Z"/><path class="cls-1" d="M155.67,122h2.78v36.4h-2l-.72-2.78h-.19a7.89,7.89,0,0,1-6.86,3.31c-5.94,0-9.59-3.89-9.59-12.38,0-8.92,4.75-14,12.52-14a23.47,23.47,0,0,1,4.08.38Zm0,29.68v-16a19.33,19.33,0,0,0-4.08-.53c-6.52,0-9.64,3.84-9.64,11,0,7.87,3.55,10.22,7.2,10.22A6.68,6.68,0,0,0,155.67,151.72Z"/><path class="cls-4" d="M169.52,121.41a3.08,3.08,0,0,1,3.16,3.21,3.14,3.14,0,0,1-6.28,0A3.1,3.1,0,0,1,169.52,121.41Zm-2.21,10.65h4.75v26.38h-4.75Z"/><path class="cls-1" d="M197,139.88V152c0,2.54.76,4.37,2.73,4.37h.62v2.15a2.85,2.85,0,0,1-.76.1,4.61,4.61,0,0,1-4.7-3.21h-.2a9.73,9.73,0,0,1-8,3.6c-4.74,0-7.43-3.36-7.43-6.77,0-5.66,5.71-8.49,15.11-8.39v-3c0-4.6-2.16-5.94-5.95-5.94a7,7,0,0,0-6.28,3.22l-2.07-1.74a9.9,9.9,0,0,1,8.49-4.07C193.83,132.25,197,134.7,197,139.88Zm-2.59,6.32c-6.67-.18-12.28,1.44-12.28,5.76,0,2.54,1.82,4.6,5.13,4.6a8.66,8.66,0,0,0,7.15-4Z"/><path class="cls-1" d="M201.93,133.54c2-.81,3.21-2.2,3.21-3.68,0-1.64-1.34-2.46-2.78-3.27v-.24a2.52,2.52,0,0,1,2.59-2.59c1.63,0,3.07,1.24,3.07,3.88a8.23,8.23,0,0,1-5.27,7.39Z"/><path class="cls-1" d="M210.61,139.16c0-3.6,3-7,8.63-7a10.39,10.39,0,0,1,7,2.5l-1.82,2.11a7.65,7.65,0,0,0-5.33-2c-4.07,0-5.75,2-5.75,4.32,0,6.38,13.29,3.73,13.29,12.56,0,3.6-3.07,7.2-8.93,7.2a12.69,12.69,0,0,1-8.77-3.12l1.82-2.2a9.83,9.83,0,0,0,7.1,2.73c4,0,6-2.12,6-4.61C223.89,145.24,210.61,147.93,210.61,139.16Z"/><path class="cls-1" d="M161.73,216.06a10.37,10.37,0,0,0-3.65-.48c-2.59,0-3.64,1.24-3.64,3.69v4.56h7v2.4h-7v23.45h-2.78V226.23h-4.42v-2.4h4.42v-4.46c0-3.89,2.2-6.34,6.85-6.34a11.37,11.37,0,0,1,3.89.58Z"/><path class="cls-5" d="M169.44,212.65a3.08,3.08,0,0,1,3.17,3.21,3.14,3.14,0,0,1-6.28,0A3.1,3.1,0,0,1,169.44,212.65Zm-2.2,10.65H172v26.38h-4.75Z"/><path class="cls-1" d="M192.75,226.7a9.91,9.91,0,0,0-2.88-.43c-2.64,0-5.27,1.06-6.42,3.7v19.71h-2.79V223.83h2.06l.63,2.63h.19a8,8,0,0,1,6.47-3,11.51,11.51,0,0,1,2.74.28Z"/><path class="cls-1" d="M221.48,223.34c5.08,0,8,3,8,8.54v17.8h-2.78V232.51c0-4.27-2-6.57-5.56-6.57a6.6,6.6,0,0,0-6.38,4.65v19.09h-2.78V232.75c0-4.37-2-6.81-5.56-6.81a6.44,6.44,0,0,0-6.38,5v18.7H197.2V223.83h2.07l.62,2.87h.19c.48-.81,2.26-3.36,6.67-3.36,3.84,0,6,1.79,6.95,4.28h.2C214.81,225.41,217.3,223.34,221.48,223.34Z"/><path class="cls-6" d="M167,261.62h4.75V288H167Z"/><path class="cls-7" d="M167,85.46h4.75v26.38H167Z"/></g></g></svg>